<?xml version="1.0" encoding="utf-8"?>
<!-- Generator: Adobe Illustrator 15.1.0, SVG Export Plug-In . SVG Version: 6.00 Build 0)  -->
<!DOCTYPE svg PUBLIC "-//W3C//DTD SVG 1.1//EN" "http://www.w3.org/Graphics/SVG/1.1/DTD/svg11.dtd">
<svg version="1.1" id="Layer_1" xmlns="http://www.w3.org/2000/svg" xmlns:xlink="http://www.w3.org/1999/xlink" x="0px" y="0px"
	 width="400px" height="400px" viewBox="0 0 400 400" enable-background="new 0 0 400 400" xml:space="preserve">
<g>
	<path fill="#FFFFFF" d="M317.964,119.023c4.899,7.707,9.057,15.89,12.37,24.407c3.314,8.514,5.882,17.334,7.504,26.346
		c3.308,18.01,3.11,36.687-0.554,54.75c-3.672,18.057-10.812,35.5-21.102,51.034c-10.266,15.556-23.652,29.136-39.321,39.723
		c-15.55,10.545-33.391,18.17-52.109,21.949c-18.722,3.793-38.308,3.792-57.196-0.071c-18.891-3.837-37.074-11.54-53.052-22.565
		c-7.972-5.529-15.432-11.831-22.151-18.855c-6.708-7.034-12.713-14.732-17.923-22.925c-5.173-8.216-9.532-16.956-13.004-26.033
		c-3.485-9.076-5.947-18.53-7.519-28.104c-3.105-19.165-2.249-38.903,2.407-57.614c4.621-18.723,13.043-36.416,24.519-51.694
		c11.477-15.302,25.976-28.086,42.282-37.656c16.204-9.536,34.295-15.833,52.738-18.393c18.452-2.61,37.275-1.555,55.157,2.898
		c17.885,4.458,34.834,12.313,49.672,23.043c7.438,5.339,14.3,11.447,20.562,18.101C307.51,104.016,313.11,111.287,317.964,119.023z
		 M317.964,119.023c-4.902-7.705-10.547-14.936-16.847-21.54c-6.301-6.605-13.317-12.508-20.804-17.698
		c-15.005-10.348-32.098-17.568-49.849-21.147c-17.749-3.607-36.142-3.57-53.693,0.024c-17.574,3.596-34.205,10.74-48.875,20.73
		c-14.594,9.915-27.155,22.705-36.716,37.277c-9.602,14.564-16.254,30.912-19.67,47.826c-1.715,8.458-2.57,17.061-2.679,25.648
		c-0.097,8.592,0.701,17.166,2.211,25.589c3.1,16.837,9.426,33.028,18.6,47.475c4.546,7.249,9.786,14.052,15.644,20.275
		c5.844,6.234,12.262,11.944,19.215,16.943c13.865,10.052,29.723,17.425,46.468,21.624c16.742,4.197,34.373,5.215,51.656,2.803
		c17.297-2.376,34.179-8.192,49.503-17.172c15.23-8.898,28.905-20.893,39.677-35.211c10.788-14.309,18.724-30.906,23.089-48.485
		c4.396-17.569,5.217-36.107,2.319-54.102c-1.469-8.99-3.782-17.863-7.04-26.391C326.917,134.965,322.814,126.761,317.964,119.023z"
		/>
</g>
<g>
	<path fill="#FFFFFF" d="M259.432,334.052c-8.913,0-16.165-7.251-16.165-16.165s7.252-16.165,16.165-16.165
		s16.165,7.251,16.165,16.165S268.345,334.052,259.432,334.052z"/>
	<path d="M259.432,302.723c8.376,0,15.165,6.789,15.165,15.165s-6.789,15.165-15.165,15.165s-15.165-6.789-15.165-15.165
		S251.056,302.723,259.432,302.723 M259.432,300.723c-9.465,0-17.165,7.7-17.165,17.165s7.7,17.165,17.165,17.165
		s17.165-7.7,17.165-17.165S268.896,300.723,259.432,300.723L259.432,300.723z"/>
</g>
<g>
	<polygon points="190.117,209.465 169.376,213.108 232.645,21.548 305.468,39.706 243.329,175.876 279.531,168.434 117.786,389.11 	
		"/>
	<path d="M232.974,22.146l71.79,17.9l-62.298,136.519l35.895-7.38L119.737,385.602l71.18-176.785l-20.804,3.654L232.974,22.146
		 M232.315,20.951l-0.291,0.881l-62.861,190.325l-0.524,1.588l1.647-0.29l19.031-3.342L118.81,385.229l-2.976,7.391l4.71-6.427
		l158.623-216.417l1.534-2.093l-2.542,0.522l-33.966,6.983l61.48-134.728l0.499-1.094l-1.167-0.291l-71.79-17.9L232.315,20.951
		L232.315,20.951z"/>
</g>
<g>
	<polygon fill="#FFFFFF" points="176.999,212.52 156.197,216.173 221.627,18.8 294.451,36.958 230.139,177.64 263.718,171.713 
		118.09,388.957 	"/>
	<g>
		<path d="M221.956,19.397l71.79,17.9l-64.458,141l33.361-5.889L119.737,385.602l58.001-173.719l-20.804,3.653L221.956,19.397
			 M221.299,18.203l-0.292,0.88l-65.021,196.138l-0.527,1.589l1.649-0.29l19.151-3.363l-57.47,172.127l-2.346,7.028l4.125-6.155
			L263.48,172.966l1.307-1.949l-2.312,0.408l-31.486,5.558l63.666-139.269l0.501-1.095l-1.168-0.291l-71.79-17.9L221.299,18.203
			L221.299,18.203z"/>
	</g>
</g>
</svg>
